<svg class="w-36 md:w-44" id="Layer_1" data-name="Layer 1" xmlns="http://www.w3.org/2000/svg" viewBox="0 0 250 100">
  <defs>
    <style>
      .cls-2{stroke-miterlimit:10;fill:#fff;stroke:#36312b;stroke-width:.68px}.cls-4{fill:#36312b}.cls-6{fill:#ffab03}
    </style>
  </defs>
  <path stroke-width="1.51" stroke-miterlimit="10" fill="none" stroke="#000" d="M106.48 44.76V86.8H55.77V44.76"/>
  <path class="cls-2" d="M120.47 40.76c-7.08 6.36-18.09-.62-15.36-9.74a13.41 13.41 0 01-6.74-6.47C88.82 27.06 82.29 15 89.65 8.39a9.45 9.45 0 0114.51 2.33 2 2 0 00.11.2 8.8 8.8 0 011-.09c6.16-.24 12 5.33 12.53 11.52a10.51 10.51 0 01-.1 2.65l.31.14a9.45 9.45 0 012.46 15.62z"/>
  <path class="cls-2" d="M101.58 42.14a19.71 19.71 0 00-14.37-16c-.48-.14-.44-.8.08-1.27 4.83-4.33 4.87-4.54 5.46-4.39 12.7 3.32 16.15 16.27 14.63 17.63-3.86 3.48-5.56 5.4-5.8 4.03z"/>
  <path d="M115.35 37c-3 2.72-8.89 1.15-13.08-3.52s-5.13-10.65-2.1-13.37" fill="#fff"/>
  <path class="cls-4" d="M115.35 37a5.56 5.56 0 01-3.35 1.57 9.4 9.4 0 01-3.79-.49 15.72 15.72 0 01-9.84-10.95 9.28 9.28 0 01-.08-3.82 5.52 5.52 0 011.92-3.2 5.66 5.66 0 00-1.42 3.28 8.9 8.9 0 00.35 3.55 16.34 16.34 0 003.56 6.2 16.34 16.34 0 005.78 4.2 9 9 0 003.49.73 5.75 5.75 0 003.38-1.07zM100.14 14.78a8.4 8.4 0 014-4.06 2 2 0 00.11.2 8.8 8.8 0 011-.09 9.46 9.46 0 00-5.11 3.95zM120.53 33.09a9.14 9.14 0 01-2.72-10.74 10.51 10.51 0 01-.11 2.65l.31.14a9.64 9.64 0 002.52 7.95zM92.46 20.47a1.58 1.58 0 00-.68.39c-.81-3.12 0-5.1 2.38-7.45-1.81 2.49-2.58 4.18-1.7 7.06z"/>
  <path stroke-width="4.55" stroke-miterlimit="10" fill="none" stroke="#000" d="M45.17 55.11l35.86-35.86 35.85 35.86"/>
  <path d="M100 65.9a18.88 18.88 0 01-8 7.25A23.07 23.07 0 0186.69 75a26.05 26.05 0 01-2.77.41c-.93.09-1.86.1-2.79.1a25.52 25.52 0 01-10.62-2.62 20.42 20.42 0 01-8.16-7l.24-.34A32.37 32.37 0 0067 67.86a37.64 37.64 0 004.6 1.77 34.3 34.3 0 009.67 1.61 32.05 32.05 0 004.9-.25 28.91 28.91 0 009.34-2.94 34.2 34.2 0 004.25-2.49z"/>
  <path class="cls-6" d="M146.79 49.2v.4c-.15.42-2.19.49-2.65.49h-.64a7.52 7.52 0 01-1.89-.13c-.06 0-.31-.09-.31-.21 0-.82.09-1.68-.18-8.78v-.22c-2 0-2.75.1-4 .16v5c0 .49.16 2.41.16 2.8 0 .64-.13.77-.7.92-.16.06-.65.21-.68.21h-.54c-.37 0-.37-.06-.71-.06-.64 0-1.43.12-2.1.12-.15 0-.67 0-.67-.33.09-7.44-.31-17.48-.43-19.61v-.46c0-.7 1.13-.52 1.59-.52h3.54a15.59 15.59 0 01.24 2.2l.21 5.43 4-.07v-.12-.12c.06-2.1-.19-4.18-.19-6.31 0-.25-.09-.89.13-1.13 1.06.09 2.13-.18 3.2-.18.39 0 2-.19 2 .39-.08 6.59.41 13.24.62 20.13zM150.3 35.66c0-.46.33-2.62.46-3.08a4.77 4.77 0 012.89-3.42c1.8-.58 6.83-.82 8.54.37 2.41 1.68 3.42 3.6 3.42 7.38 0 3.42 1.16 12-4.52 12.93-.76.12-2.89.28-3.66.28h-1c-.12 0-.25 0-.37-.07-1.16-.18-2.65-.39-3.35-1.22-2-2.25-2.26-5.45-2.35-9.18 0-.82-.06-1.86-.06-2.65zm5.15 7.23c.22 1.68.92 2.38 2.2 2.38h.24c1.28 0 2.81 0 2.72-3.66v-3.49c0-.73 0-1.4-.07-2.16v-.25c0-2.26-1.67-2.19-2.68-2.16h-.27c-1.83 0-1.93.7-2.23 3v1.15a49.06 49.06 0 00.09 5.19zM169.91 49.81c-.65-.06-.55-.64-.55-1.16 0-.18-.06-1-.06-1.16a.82.82 0 00.06-.39c0-4.27-.13-11.87-.13-17.45 0-.94 1.86-.94 2.44-.94h.46c1.13 0 3.14 0 3.87.45.1.07 2.54 7.05 3.6 9.58.55-1.07 1.53-5.18 3.72-9.39.34-.52 1.53-.61 2.08-.61l3.26.09c.61.09.67 1.07.7 1.55.31 7.81-.15 6.41.19 18.79v.24c-.19.13-.31.34-.52.37h-.12c-.74.06-1.38.18-2.11.21 0 0-.3-.06-.4-.06a1 1 0 00-.27-.09c-.09 0-.46 0-.67-.06a1.78 1.78 0 01-1-.43.63.63 0 01-.15-.39v-1.19c-.09-6.35-.09-5.89-.15-8.66l-3.57 10.55a3.92 3.92 0 01-1.86-.12s-.06 0-.06-.06c-.49-1.19-2.44-6.1-4-10.68l.06 9.82c0 .28 0 1-.39 1.16-.1 0-.31 0-.43.06s-.12.06-.15.06l-.13-.06a.72.72 0 00-.27-.06c-1.36-.09-2.17.12-3.45.03zM193.26 48.56c0-1.22-.15-16.9-.18-17.35s0-.95 0-1.44.31-.54.43-1l.12-.09a4 4 0 01.61 0c1.4 0 7.87-.19 9.27.15.73 0 .49 0 .67.64l.19 2-.19 1.53c0 .06-.27.3-.33.36a3.52 3.52 0 01-1.25 0c-.43 0-3.75-.15-4.18-.12 0 .09-.06.37-.06.43v.61a15.58 15.58 0 00.18 2.07l.06.09a.82.82 0 00.34.06 25.1 25.1 0 003.78 0 2.9 2.9 0 00.43.06c.18.25.15.22.12.46 0 .58 0 3-.12 3.75a1.08 1.08 0 01-.22.43c-.3.27-4.39-.06-4.42.09v3.27a1.66 1.66 0 00.09.51h.31c1.67.13 3.53 0 5.24.13.18 0 .18.24.25.36a8.89 8.89 0 01.12 2.81c0 .12-.06.73-.09.85a1.06 1.06 0 01-.31.58c-.46-.12-2.93.37-10.64.06-.43-.26-.22-.86-.22-1.3z"/>
  <path d="M133.82 86.37c-.07 0-.31-.09-.31-.21 0-.82.09-1.68.09-2.47v-.46c0-.21-.15-1.86-.15-2.07V79.6c0-.24-.12-2-.12-2.22v-2c0-.21-.12-1.73-.15-2a3.74 3.74 0 000-.58v-.12c.07-2.1-.18-4.18-.18-6.31 0-.25-.09-.89.12-1.13a76.47 76.47 0 018.09-.18c5 .33 5.79 7.38 3.53 9.63l-.91.83s-.09 0-.09.06c0 .09.76.55.85.64s1.07 1 1.22 1.13c2.35 2.77 1.68 8.66-2.32 9.21a20.73 20.73 0 01-3 .18l-5.55-.3a3.64 3.64 0 01-1.12-.07zm4.57-13.23h.43c1.28 0 2-.37 2.38-1.59 0 0 .06-.27.06-.3v-1.44c0-1-.8-1.37-1.68-1.37h-.27l-1.23.12H138l-.09.07v.45c0 1.19.22 2.29.34 3.51V73zm2.17 9.91a2.08 2.08 0 001.95-2.26c0-.79-.52-2.31-1.37-2.62-.19 0-.77-.09-1-.09-.52 0-1 .06-1.49.06l.18 4.54c0 .13.55.13.58.13s.79.15.94.18.17.06.21.06zM151.2 84.64c-.15-4.4-.15-4.73-.31-9.61-.06-2-.12-4.88-.24-9.15 1-1 3.26-.67 4.91-.43.24 0 .33.55.33.55l.1.25c.33 3.93.48 12.53.61 19.21v.4c-.31.39-.65.3-1 .39 0 0-.18.09-.18.12a2.88 2.88 0 01-1.35.13 16.55 16.55 0 01-2.8-.43c-.04-.52-.04-1.01-.07-1.43zM163.24 86.19v-2.44-.46c0-.45-.12-2.53-.12-3 0-.19.12-1.68.12-1.86 0-.86-.06-1.71 0-2.57v-.61-3.63c0-.34 0-.88-.24-1.06a2.42 2.42 0 00-.92 0h-2.33c-.49-.49-.22-3.17-.43-4.39V66a3.28 3.28 0 00.15-.58c.12-.27.73-.27.92-.27H162c.67 0 1.53 0 9.55-.09a.3.3 0 010 .09c.15.21.09.55.12.79a5.75 5.75 0 00.09 1c0 .21.12 1.52.09 1.74V69c0 .27-.09.67-.09 1 0 .76-.06.55-1.61.55h-1.62l-.06.91.3 14.33a2.17 2.17 0 01-.18.67c-.18.28-2.16.28-2.74.28h-1a8.44 8.44 0 01-1.52-.06.37.37 0 01-.09-.49zM175.62 85.15c0-1.22-.15-16.89-.18-17.35s0-.94 0-1.43.31-.55.43-1l.12-.09a4 4 0 01.61 0c1.4 0 7.87-.18 9.27.15.73 0 .49 0 .67.64l.18 2-.18 1.46c0 .06-.27.31-.33.37a3.52 3.52 0 01-1.25 0c-.43 0-3.76-.16-4.18-.13 0 .1-.06.37-.06.43v.61a15.76 15.76 0 00.18 2.08l.1.11a.82.82 0 00.34.06 26.49 26.49 0 003.78 0 2.8 2.8 0 00.42.06c.19.24.16.21.13.46 0 .58 0 3-.13 3.75a1.1 1.1 0 01-.21.42c-.3.28-4.39-.06-4.42.1v3.26a1.72 1.72 0 00.09.52h.31c1.67.12 3.53 0 5.24.12.18 0 .18.24.24.37a8.55 8.55 0 01.13 2.8c0 .12-.06.73-.09.86a1.22 1.22 0 01-.31.58c-.46-.13-2.93.36-10.64.06-.47-.23-.26-.87-.26-1.27zM193 79.24c.54.49 1.55 2.41 3 2.41.74 0 1.38-.4 1.38-1.07 0-1.56-1.59-2-2.9-3-1.83-1.4-3.72-2.41-3.9-5.18-.49-2.84 1.16-6.26 4.21-7a12.88 12.88 0 012.43-.18c2.17 0 3.94 1.22 5.83 4a18.49 18.49 0 01-3.29 3.11s-.1.07-.13 0c-1.15-1.93-4.17-4-4.17-1.47 0 1.13 2.13 2.38 2.89 2.9C202 76.22 203 78.2 203 80.58a6.06 6.06 0 01-5.89 6.22c-3.05 0-5.15-1.28-7.16-3.66-.02-.91 2.39-4.48 3.05-3.9z"/>
</svg>